<svg width="107" height="16" viewBox="0 0 107 16" fill="none" xmlns="http://www.w3.org/2000/svg">
<path d="M13.1478 15.286C13.2019 15.2875 13.2539 15.2662 13.2904 15.2276C13.3269 15.189 13.3443 15.137 13.338 15.085L12.7148 9.93053L16.3518 6.11206C16.3966 6.06427 16.4115 5.99696 16.391 5.93558C16.3704 5.87421 16.3175 5.82816 16.2523 5.81485L10.9914 4.793L8.36094 0.269722C8.32761 0.214283 8.26632 0.180176 8.20002 0.180176C8.13373 0.180176 8.07243 0.214283 8.0391 0.269722L5.40864 4.793L0.147763 5.81485C0.0825119 5.82816 0.029603 5.87421 0.00905846 5.93558C-0.011486 5.99696 0.00347241 6.06427 0.048273 6.11206L3.68526 9.93053L3.06202 15.085C3.05429 15.1498 3.08333 15.2135 3.13795 15.2517C3.19258 15.2898 3.26425 15.2965 3.32536 15.269L8.20002 13.1036L13.0747 15.269C13.0976 15.2794 13.1225 15.2852 13.1478 15.2859V15.286Z" fill="#F9D800"/>
<path d="M37.3602 15.1053C37.4143 15.1068 37.4663 15.0854 37.5028 15.0469C37.5393 15.0083 37.5567 14.9562 37.5504 14.9043L36.9272 9.74999L40.5641 5.93166C40.6089 5.88388 40.6238 5.81657 40.6033 5.7552C40.5827 5.69382 40.5298 5.64777 40.4646 5.63446L35.2039 4.61266L32.5735 0.0895431C32.5402 0.0341062 32.4789 0 32.4126 0C32.3463 0 32.285 0.0341062 32.2517 0.0895431L29.6213 4.61266L24.3606 5.63446C24.2954 5.64777 24.2425 5.69382 24.2219 5.7552C24.2014 5.81657 24.2164 5.88388 24.2612 5.93166L27.898 9.74999L27.2748 14.9043C27.2671 14.969 27.2961 15.0328 27.3507 15.0709C27.4053 15.1091 27.477 15.1157 27.5381 15.0883L32.4126 12.923L37.2871 15.0883C37.31 15.0987 37.3349 15.1044 37.3602 15.1052V15.1053Z" fill="#F9D800"/>
<path d="M59.2289 15.1053C59.2829 15.1068 59.335 15.0854 59.3715 15.0469C59.408 15.0083 59.4254 14.9562 59.4191 14.9043L58.7959 9.74999L62.4327 5.93166C62.4775 5.88388 62.4925 5.81657 62.4719 5.7552C62.4514 5.69382 62.3985 5.64777 62.3332 5.63446L57.0725 4.61266L54.4422 0.0895431C54.4088 0.0341062 54.3476 0 54.2813 0C54.215 0 54.1537 0.0341062 54.1203 0.0895431L51.49 4.61266L46.2293 5.63446C46.1641 5.64777 46.1111 5.69382 46.0906 5.7552C46.0701 5.81657 46.085 5.88388 46.1298 5.93166L49.7667 9.74999L49.1435 14.9043C49.1357 14.969 49.1648 15.0328 49.2194 15.0709C49.274 15.1091 49.3457 15.1157 49.4068 15.0883L54.2813 12.923L59.1557 15.0883C59.1787 15.0987 59.2036 15.1044 59.2289 15.1052V15.1053Z" fill="#F9D800"/>
<path d="M81.0975 15.1053C81.1516 15.1068 81.2036 15.0854 81.2401 15.0469C81.2766 15.0083 81.294 14.9562 81.2877 14.9043L80.6645 9.74999L84.3014 5.93166C84.3462 5.88388 84.3611 5.81657 84.3406 5.7552C84.32 5.69382 84.2671 5.64777 84.2019 5.63446L78.9412 4.61266L76.3108 0.0895431C76.2775 0.0341062 76.2162 0 76.1499 0C76.0836 0 76.0223 0.0341062 75.989 0.0895431L73.3586 4.61266L68.098 5.63446C68.0327 5.64777 67.9798 5.69382 67.9593 5.7552C67.9387 5.81657 67.9537 5.88388 67.9985 5.93166L71.6353 9.74999L71.0121 14.9043C71.0044 14.969 71.0334 15.0328 71.088 15.0709C71.1427 15.1091 71.2143 15.1157 71.2754 15.0883L76.1499 12.923L81.0244 15.0883C81.0473 15.0987 81.0722 15.1044 81.0975 15.1052V15.1053Z" fill="#F9D800"/>
<path d="M102.966 15.1053C103.02 15.1068 103.072 15.0854 103.109 15.0469C103.145 15.0083 103.163 14.9562 103.156 14.9043L102.533 9.74999L106.17 5.93166C106.215 5.88388 106.23 5.81657 106.209 5.7552C106.189 5.69382 106.136 5.64777 106.071 5.63446L100.81 4.61266L98.1795 0.0895431C98.1462 0.0341062 98.0849 0 98.0186 0C97.9523 0 97.891 0.0341062 97.8577 0.0895431L95.2273 4.61266L89.9666 5.63446C89.9014 5.64777 89.8484 5.69382 89.8279 5.7552C89.8074 5.81657 89.8223 5.88388 89.8671 5.93166L93.504 9.74999L92.8808 14.9043C92.873 14.969 92.9021 15.0328 92.9567 15.0709C93.0113 15.1091 93.083 15.1157 93.1441 15.0883L98.0186 12.923L102.893 15.0883C102.916 15.0987 102.941 15.1044 102.966 15.1052V15.1053Z" fill="#F9D800"/>
</svg>
