<?xml version="1.0" ?><svg height="250px" version="1.1" viewBox="0 0 250 250" width="250px" xmlns="http://www.w3.org/2000/svg" xmlns:xlink="http://www.w3.org/1999/xlink"><title/><desc/><g fill="none" fill-rule="evenodd" id="twitch_squircle" stroke="none" stroke-width="1"><rect fill="#6440A4" height="250" id="Rectangle" rx="32" width="250" x="0" y="0"/><path d="M250,208 L250,218 C250,235.673112 235.673112,250 218,250 L32,250 C14.326888,250 2.164332e-15,235.673112 0,218 L0,208 C2.164332e-15,225.673112 14.326888,240 32,240 L218,240 C235.673112,240 250,225.673112 250,208 Z" fill="#000000" fill-opacity="0.25" id="Shadow"/><path d="M249.933594,126.521443 L249.933594,207.986328 C249.933594,225.65944 235.606706,239.986328 217.933594,239.986328 L116.238825,239.986328 L60.7633885,178.576694 L70.7851563,59.765625 L190.662051,59.5641204 L249.933594,126.521443 Z" fill="#000000" id="3d-shadow" opacity="0.15452939"/><path d="M113.348753,130.016972 L125.577263,130.016972 L125.577263,94.4171143 L113.348753,94.4171143 L113.348753,130.016972 Z M145.958112,130.016972 L158.186622,130.016972 L158.186622,94.4171143 L145.958112,94.4171143 L145.958112,130.016972 Z M178.567472,136.163937 L158.186622,156.52824 L125.577263,156.52824 L108.253541,173.837898 L108.253541,156.52824 L80.7393937,156.52824 L80.7393937,70.9981652 L178.567472,70.9981652 L178.567472,136.163937 Z M69.5299264,58.7795831 L60.3585441,82.1985322 L60.3585441,177.910759 L92.9679034,177.910759 L92.9679034,195.220417 L111.310668,195.220417 L128.63439,177.910759 L155.129495,177.910759 L190.795981,142.273228 L190.795981,58.7795831 L69.5299264,58.7795831 Z" fill="#FFFFFF" id="logo"/></g></svg>