<svg width="24" height="18" viewBox="0 0 24 18" fill="none" xmlns="http://www.w3.org/2000/svg">
<path d="M22.39 2.86168H1.43084C0.635929 2.86168 0 2.22575 0 1.43084C0 0.63593 0.635929 0 1.43084 0H22.39C23.1849 0 23.8209 0.63593 23.8209 1.43084C23.8474 2.22575 23.1849 2.86168 22.39 2.86168Z" fill="#ffffff"/>
<path d="M11.5792 10.3339H1.43084C0.635929 10.3339 0 9.69793 0 8.90301C0 8.1081 0.635929 7.47217 1.43084 7.47217H11.5792C12.3741 7.47217 13.0101 8.1081 13.0101 8.90301C13.0366 9.67143 12.4006 10.3339 11.5792 10.3339Z" fill="#ffffff"/>
<path d="M16.8786 17.7001H1.43084C0.635929 17.7001 0 17.0641 0 16.2692C0 15.4743 0.635929 14.8384 1.43084 14.8384H16.8521C17.6471 14.8384 18.283 15.4743 18.283 16.2692C18.3095 17.0641 17.6736 17.7001 16.8786 17.7001Z" fill="#ffffff"/>
</svg>
